# xmcd
#
# Track frame offsets:
#	150
#	19578
#	41626
#	59130
#	75105
#	91242
#	106549
#	123079
#	140191
#	158870
#	181366
#	200630
#	221878
#	240147
#
# Disc length: 3467 seconds
#
# Revision: 0
# Processed by: cddbd v1.5.2PL0 Copyright (c) Steve Scherf et al.
# Submitted via: audiograbber 1.83.01
#
DISCID=b50d890e
DTITLE=Sonny Mack - going for GOLD
DYEAR=2011
DGENRE=Blues
TTITLE0=Playing Catch Up
TTITLE1=It's Saturday Night
TTITLE2=Let Me Change Your Mind
TTITLE3=You Do That To Me
TTITLE4=Mack The Blues Man
TTITLE5=Guitar Licker
TTITLE6=La La La
TTITLE7=I Forgot To Say I Love You
TTITLE8=Going For Gold
TTITLE9=I Only Get Laid When I Get Paid
TTITLE10=Her Heart Belongs Only To You
TTITLE11=Bang That Thang
TTITLE12=Moon Over Memphis
TTITLE13=Midnight Man
EXTD=
EXTT0=
EXTT1=
EXTT2=
EXTT3=
EXTT4=
EXTT5=
EXTT6=
EXTT7=
EXTT8=
EXTT9=
EXTT10=
EXTT11=
EXTT12=
EXTT13=
PLAYORDER=
